<svg xmlns="http://www.w3.org/2000/svg" version="1.2" viewBox="64.3 20.7 471.4 26.1">
	<title>43435-svg</title>
	<style> .s0 { fill: #ffffff } </style>
	<g id="g8">
		<g id="g10">
			<path id="path198" fill-rule="evenodd" class="s0"
				d="m307.5 32.5c-1.6-0.6-3-1.4-4.1-2.5-1.2-1.1-1.9-2.6-2.5-4.2-0.6-1.6-0.9-3.3-1.3-5.1-0.4 1.8-0.8 3.5-1.3 5.1-0.6 1.6-1.4 3.1-2.5 4.2-1.1 1.1-2.6 1.9-4.2 2.5-1.6 0.6-3.3 0.9-5.1 1.3 1.8 0.4 3.5 0.7 5.1 1.3 1.6 0.6 3.1 1.4 4.2 2.5 1.1 1.1 1.9 2.6 2.5 4.1 0.5 1.6 0.9 3.4 1.3 5.1 0.4-1.7 0.7-3.5 1.3-5.1 0.6-1.5 1.3-3 2.5-4.1 1.1-1.1 2.5-1.9 4.1-2.5 1.6-0.6 3.4-0.9 5.1-1.3-1.7-0.4-3.5-0.7-5.1-1.3zm-5.4 3.8c-1.3 1.3-2.1 3-2.5 4.7-0.4-1.7-1.2-3.4-2.5-4.7-1.3-1.3-3-2.1-4.7-2.5 1.7-0.4 3.4-1.2 4.7-2.5 1.3-1.3 2.1-3 2.5-4.7 0.4 1.7 1.2 3.4 2.5 4.7 1.3 1.3 3 2.1 4.7 2.5-1.7 0.4-3.4 1.2-4.7 2.5z"></path>
			<path id="path200" fill-rule="evenodd" class="s0"
				d="m64.3 33.8l46.3 0.5q-0.1-0.2-0.1-0.5 0-0.3 0.1-0.5z"></path>
			<path id="path202" fill-rule="evenodd" class="s0"
				d="m215.2 32.7h-5.9c0.3 0.3 0.6 0.6 0.6 1.1 0 0.5-0.3 0.8-0.6 1.1h5.9c-0.3-0.2-0.6-0.6-0.6-1.1 0-0.5 0.3-0.9 0.6-1.1z"></path>
			<path id="path204" fill-rule="evenodd" class="s0"
				d="m172.2 32.9c0.3 0.2 0.4 0.5 0.4 0.9 0 0.4-0.1 0.7-0.4 0.9l4 0.1c-0.2-0.3-0.4-0.6-0.4-1 0-0.4 0.2-0.7 0.4-1z"></path>
			<path id="path206" fill-rule="evenodd" class="s0"
				d="m156.7 33c0.1 0.2 0.3 0.5 0.3 0.8 0 0.3-0.2 0.6-0.3 0.8l3.2 0.1c-0.2-0.3-0.4-0.6-0.4-0.9 0-0.3 0.2-0.6 0.4-0.9z"></path>
			<path id="path208" fill-rule="evenodd" class="s0"
				d="m194.6 32.7l-5 0.1c0.3 0.2 0.6 0.6 0.6 1 0 0.4-0.3 0.8-0.6 1h5c-0.3-0.2-0.5-0.6-0.5-1 0-0.4 0.2-0.8 0.5-1.1z"></path>
			<path id="path210" fill-rule="evenodd" class="s0"
				d="m142.8 33c0.2 0.3 0.3 0.5 0.3 0.8 0 0.3-0.1 0.5-0.3 0.8h2.5c-0.1-0.3-0.2-0.5-0.2-0.8 0-0.3 0.1-0.6 0.2-0.8z"></path>
			<path id="path212" fill-rule="evenodd" class="s0"
				d="m119.5 33.2q0.2 0.3 0.2 0.6 0 0.3-0.2 0.6h1.4q-0.2-0.3-0.2-0.6 0-0.3 0.2-0.6z"></path>
			<path id="path214" fill-rule="evenodd" class="s0"
				d="m264.4 32.6h-8.2c0.4 0.2 0.8 0.7 0.8 1.2 0 0.5-0.4 1-0.8 1.2h8.2c-0.4-0.2-0.8-0.7-0.8-1.2 0-0.6 0.4-1 0.8-1.2z"></path>
			<path id="path216" fill-rule="evenodd" class="s0"
				d="m130.5 33.1q0.2 0.3 0.2 0.7 0 0.4-0.2 0.7h1.9q-0.2-0.3-0.2-0.7 0-0.4 0.2-0.7z"></path>
			<path id="path218" fill-rule="evenodd" class="s0"
				d="m238.4 32.6l-7 0.1c0.4 0.2 0.6 0.6 0.6 1.1 0 0.5-0.2 0.9-0.6 1.1l7 0.1c-0.4-0.3-0.7-0.7-0.7-1.2 0-0.5 0.3-0.9 0.7-1.2z"></path>
			<path id="path220" fill-rule="evenodd" class="s0"
				d="m221.2 30.2q0.3-0.4 0.4-0.8h-18q0.1 0.4 0.2 0.8z"></path>
			<path id="path222" fill-rule="evenodd" class="s0"
				d="m244.8 30.3q0.3-0.5 0.6-1h-20.3q0.1 0.5 0.3 0.9z"></path>
			<path id="path224" fill-rule="evenodd" class="s0"
				d="m284.7 30.4l5.9-1.2h-14.1q0.3 0.7 0.7 1.2z"></path>
			<path id="path226" fill-rule="evenodd" class="s0"
				d="m164.6 30q0.1-0.2 0.1-0.4l-12.3 0.1q0 0.1 0 0.2z"></path>
			<path id="path228" fill-rule="evenodd" class="s0"
				d="m149.7 29.7l-10.7 0.1q0 0 0 0l10.6 0.1q0.1-0.1 0.1-0.2z"></path>
			<path id="path230" fill-rule="evenodd" class="s0"
				d="m200.2 30.2q0.1-0.4 0.2-0.8l-16 0.1q0.1 0.3 0.2 0.6z"></path>
			<path id="path232" fill-rule="evenodd" class="s0"
				d="m271.3 30.4q0.5-0.5 0.8-1.2l-22.8 0.1q0.2 0.6 0.5 1z"></path>
			<path id="path234" fill-rule="evenodd" class="s0"
				d="m180.8 30.1h0.6q0.1-0.3 0.1-0.6h-0.7l-13.4 0.1q0.1 0.2 0.1 0.4z"></path>
			<path id="path236" fill-rule="evenodd" class="s0"
				d="m225.4 37.3q-0.2 0.5-0.3 0.9l20.3 0.1q-0.3-0.6-0.6-1z"></path>
			<path id="path238" fill-rule="evenodd" class="s0"
				d="m203.8 37.4q-0.1 0.4-0.2 0.8h18q-0.1-0.4-0.4-0.8z"></path>
			<path id="path240" fill-rule="evenodd" class="s0"
				d="m249.8 37.3q-0.3 0.4-0.5 1l22.8 0.1q-0.3-0.7-0.8-1.2z"></path>
			<path id="path242" fill-rule="evenodd" class="s0"
				d="m139 37.8q0 0 0 0l10.7 0.1q0-0.1-0.1-0.2z"></path>
			<path id="path244" fill-rule="evenodd" class="s0"
				d="m152.4 37.7q0 0.1 0 0.2l12.3 0.1q0-0.2-0.1-0.4z"></path>
			<path id="path246" fill-rule="evenodd" class="s0"
				d="m180.8 37.5l-13.3 0.1q0 0.2-0.1 0.4l13.4 0.1h0.7q0-0.3-0.1-0.6z"></path>
			<path id="path248" fill-rule="evenodd" class="s0"
				d="m184.6 37.5q-0.1 0.3-0.2 0.6l16 0.1q-0.1-0.4-0.2-0.8z"></path>
			<path id="path250" fill-rule="evenodd" class="s0"
				d="m277.2 37.2q-0.4 0.5-0.7 1.2l14.1-0.2-5.9-1z"></path>
			<path id="path252" fill-rule="evenodd" class="s0"
				d="m115.1 30.5c0 2.3-1 3.3-3.3 3.3 2.3 0 3.3 1 3.3 3.3 0-2.3 1-3.3 3.2-3.3-2.2 0-3.2-1-3.2-3.3z"></path>
			<path id="path254" fill-rule="evenodd" class="s0"
				d="m125.7 30.1c0 2.6-1.1 3.7-3.7 3.7 2.6 0 3.7 1.1 3.7 3.7 0-2.6 1.1-3.7 3.7-3.7-2.6 0-3.7-1.1-3.7-3.7z"></path>
			<path id="path256" fill-rule="evenodd" class="s0"
				d="m137.6 29.7c0 2.8-1.2 4.1-4.1 4.1 2.9 0 4.1 1.3 4.1 4.1 0-2.8 1.3-4.1 4.1-4.1-2.8 0-4.1-1.3-4.1-4.1z"></path>
			<path id="path258" fill-rule="evenodd" class="s0"
				d="m151 29.2c0 3.2-1.4 4.6-4.6 4.6 3.2 0 4.6 1.4 4.6 4.6 0-3.2 1.4-4.6 4.6-4.6-3.2 0-4.6-1.4-4.6-4.6z"></path>
			<path id="path260" fill-rule="evenodd" class="s0"
				d="m166.1 28.6c0 3.6-1.6 5.2-5.2 5.2 3.6 0 5.2 1.6 5.2 5.2 0-3.6 1.6-5.2 5.2-5.2-3.6 0-5.2-1.6-5.2-5.2z"></path>
			<path id="path262" fill-rule="evenodd" class="s0"
				d="m183 28c0 4-1.8 5.8-5.9 5.8 4.1 0 5.9 1.8 5.9 5.8 0-4 1.8-5.8 5.8-5.8-4 0-5.8-1.8-5.8-5.8z"></path>
			<path id="path264" fill-rule="evenodd" class="s0"
				d="m208.6 33.8c-4.6 0-6.6-2-6.6-6.6 0 4.6-2 6.6-6.6 6.6 4.6 0 6.6 2 6.6 6.6 0-4.6 2-6.6 6.6-6.6z"></path>
			<path id="path266" fill-rule="evenodd" class="s0"
				d="m230.7 33.8c-5.1 0-7.4-2.3-7.4-7.4 0 5.1-2.2 7.4-7.3 7.4 5.1 0 7.3 2.3 7.3 7.4 0-5.1 2.3-7.4 7.4-7.4z"></path>
			<path id="path268" fill-rule="evenodd" class="s0"
				d="m255.6 33.8c-5.7 0-8.3-2.6-8.3-8.3 0 5.7-2.5 8.3-8.3 8.3 5.8 0 8.3 2.5 8.3 8.3 0-5.8 2.6-8.3 8.3-8.3z"></path>
			<path id="path270" fill-rule="evenodd" class="s0"
				d="m283.6 33.8c-6.5 0-9.3-2.9-9.3-9.3 0 6.4-2.9 9.3-9.3 9.3 6.4 0 9.3 2.9 9.3 9.3 0-6.4 2.8-9.3 9.3-9.3z"></path>
			<path id="path272" fill-rule="evenodd" class="s0"
				d="m535.7 33.8l-46.3-0.5q0.1 0.2 0.1 0.5 0 0.3-0.1 0.5z"></path>
			<path id="path274" fill-rule="evenodd" class="s0"
				d="m390.7 32.7h-5.9c0.3 0.2 0.6 0.6 0.6 1.1 0 0.5-0.3 0.9-0.6 1.1h5.9c-0.3-0.3-0.6-0.6-0.6-1.1 0-0.5 0.3-0.8 0.6-1.1z"></path>
			<path id="path276" fill-rule="evenodd" class="s0"
				d="m423.8 32.8c0.2 0.3 0.4 0.6 0.4 1 0 0.4-0.2 0.7-0.4 1l4-0.1c-0.3-0.2-0.4-0.5-0.4-0.9 0-0.4 0.1-0.7 0.4-0.9z"></path>
			<path id="path278" fill-rule="evenodd" class="s0"
				d="m440.1 32.9c0.2 0.3 0.4 0.6 0.4 0.9 0 0.3-0.2 0.6-0.4 0.9l3.2-0.1c-0.1-0.2-0.3-0.5-0.3-0.8 0-0.3 0.2-0.6 0.3-0.8z"></path>
			<path id="path280" fill-rule="evenodd" class="s0"
				d="m410.4 32.8l-5-0.1c0.3 0.3 0.5 0.7 0.5 1.1 0 0.4-0.2 0.8-0.5 1h5c-0.3-0.2-0.6-0.6-0.6-1 0-0.4 0.3-0.8 0.6-1z"></path>
			<path id="path282" fill-rule="evenodd" class="s0"
				d="m454.7 33c0.1 0.2 0.2 0.5 0.2 0.8 0 0.3-0.1 0.5-0.2 0.8h2.5c-0.2-0.3-0.3-0.5-0.3-0.8 0-0.3 0.1-0.5 0.3-0.8z"></path>
			<path id="path284" fill-rule="evenodd" class="s0"
				d="m479.1 33.2q0.2 0.3 0.2 0.6 0 0.3-0.2 0.6h1.4q-0.2-0.3-0.2-0.6 0-0.3 0.2-0.6z"></path>
			<path id="path286" fill-rule="evenodd" class="s0"
				d="m343.8 32.6h-8.2c0.4 0.2 0.8 0.6 0.8 1.2 0 0.5-0.4 1-0.8 1.2h8.2c-0.4-0.2-0.8-0.7-0.8-1.2 0-0.5 0.4-1 0.8-1.2z"></path>
			<path id="path288" fill-rule="evenodd" class="s0"
				d="m467.6 33.1q0.2 0.3 0.2 0.7 0 0.4-0.2 0.7h1.9q-0.2-0.3-0.2-0.7 0-0.4 0.2-0.7z"></path>
			<path id="path290" fill-rule="evenodd" class="s0"
				d="m368.6 32.7l-7-0.1c0.4 0.3 0.7 0.7 0.7 1.2 0 0.5-0.3 0.9-0.7 1.2l7-0.1c-0.4-0.2-0.6-0.6-0.6-1.1 0-0.5 0.2-0.9 0.6-1.1z"></path>
			<path id="path292" fill-rule="evenodd" class="s0"
				d="m396.2 30.2q0.1-0.4 0.2-0.8h-18q0.1 0.4 0.4 0.8z"></path>
			<path id="path294" fill-rule="evenodd" class="s0"
				d="m374.6 30.2q0.2-0.4 0.3-0.9h-20.3q0.3 0.5 0.6 1z"></path>
			<path id="path296" fill-rule="evenodd" class="s0"
				d="m322.8 30.4q0.4-0.5 0.7-1.2l-14.4 0.2 6.2 1z"></path>
			<path id="path298" fill-rule="evenodd" class="s0"
				d="m447.6 29.9q0-0.1 0-0.2l-12.3-0.1q0 0.2 0.1 0.4z"></path>
			<path id="path300" fill-rule="evenodd" class="s0"
				d="m461 29.8q0 0 0 0l-10.7-0.1q0 0.1 0.1 0.2z"></path>
			<path id="path302" fill-rule="evenodd" class="s0"
				d="m415.4 30.1q0.1-0.3 0.2-0.6l-16-0.1q0.1 0.4 0.2 0.8z"></path>
			<path id="path304" fill-rule="evenodd" class="s0"
				d="m350.2 30.3q0.3-0.4 0.5-1l-22.8-0.1q0.3 0.7 0.8 1.2z"></path>
			<path id="path306" fill-rule="evenodd" class="s0"
				d="m419.2 30.1l13.3-0.1q0-0.2 0.1-0.4l-13.4-0.1h-0.7q0 0.3 0.1 0.6z"></path>
			<path id="path308" fill-rule="evenodd" class="s0"
				d="m355.2 37.3q-0.3 0.4-0.6 1l20.3-0.1q-0.1-0.4-0.3-0.9z"></path>
			<path id="path310" fill-rule="evenodd" class="s0"
				d="m378.8 37.4q-0.3 0.4-0.4 0.8h18q-0.1-0.4-0.2-0.8z"></path>
			<path id="path312" fill-rule="evenodd" class="s0"
				d="m328.7 37.2q-0.5 0.5-0.8 1.2l22.8-0.1q-0.2-0.6-0.5-1z"></path>
			<path id="path314" fill-rule="evenodd" class="s0"
				d="m450.3 37.9l10.7-0.1q0 0 0 0l-10.6-0.1q-0.1 0.1-0.1 0.2z"></path>
			<path id="path316" fill-rule="evenodd" class="s0"
				d="m435.4 37.6q-0.1 0.2-0.1 0.4l12.3-0.1q0-0.1 0-0.2z"></path>
			<path id="path318" fill-rule="evenodd" class="s0"
				d="m419.2 37.5h-0.6q-0.1 0.3-0.1 0.6h0.7l13.4-0.1q-0.1-0.2-0.1-0.4z"></path>
			<path id="path320" fill-rule="evenodd" class="s0"
				d="m399.8 37.4q-0.1 0.4-0.2 0.8l16-0.1q-0.1-0.3-0.2-0.6z"></path>
			<path id="path322" fill-rule="evenodd" class="s0"
				d="m315.3 37.2l-5.9 1 14.1 0.2q-0.3-0.7-0.7-1.2z"></path>
			<path id="path324" fill-rule="evenodd" class="s0"
				d="m484.9 30.5c0 2.3-1 3.3-3.2 3.3 2.2 0 3.2 1 3.2 3.3 0-2.3 1-3.3 3.3-3.3-2.3 0-3.3-1-3.3-3.3z"></path>
			<path id="path326" fill-rule="evenodd" class="s0"
				d="m474.3 30.1c0 2.6-1.1 3.7-3.7 3.7 2.6 0 3.7 1.1 3.7 3.7 0-2.6 1.1-3.7 3.7-3.7-2.6 0-3.7-1.1-3.7-3.7z"></path>
			<path id="path328" fill-rule="evenodd" class="s0"
				d="m462.4 29.7c0 2.8-1.3 4.1-4.1 4.1 2.8 0 4.1 1.3 4.1 4.1 0-2.8 1.2-4.1 4.1-4.1-2.9 0-4.1-1.3-4.1-4.1z"></path>
			<path id="path330" fill-rule="evenodd" class="s0"
				d="m449 29.2c0 3.2-1.4 4.6-4.6 4.6 3.2 0 4.6 1.4 4.6 4.6 0-3.2 1.4-4.6 4.6-4.6-3.2 0-4.6-1.4-4.6-4.6z"></path>
			<path id="path332" fill-rule="evenodd" class="s0"
				d="m433.9 28.6c0 3.6-1.6 5.2-5.2 5.2 3.6 0 5.2 1.6 5.2 5.2 0-3.6 1.6-5.2 5.2-5.2-3.6 0-5.2-1.6-5.2-5.2z"></path>
			<path id="path334" fill-rule="evenodd" class="s0"
				d="m417 28c0 4-1.8 5.8-5.8 5.8 4 0 5.8 1.8 5.8 5.8 0-4 1.8-5.8 5.9-5.8-4.1 0-5.9-1.8-5.9-5.8z"></path>
			<path id="path336" fill-rule="evenodd" class="s0"
				d="m404.6 33.8c-4.6 0-6.6-2-6.6-6.6 0 4.6-2 6.6-6.6 6.6 4.6 0 6.6 2 6.6 6.6 0-4.6 2-6.6 6.6-6.6z"></path>
			<path id="path338" fill-rule="evenodd" class="s0"
				d="m384 33.8c-5.1 0-7.3-2.3-7.3-7.4 0 5.1-2.3 7.4-7.4 7.4 5.1 0 7.4 2.3 7.4 7.4 0-5.1 2.2-7.4 7.3-7.4z"></path>
			<path id="path340" fill-rule="evenodd" class="s0"
				d="m361 33.8c-5.8 0-8.3-2.6-8.3-8.3 0 5.7-2.6 8.3-8.3 8.3 5.7 0 8.3 2.5 8.3 8.3 0-5.8 2.5-8.3 8.3-8.3z"></path>
			<path id="path342" fill-rule="evenodd" class="s0"
				d="m335 32.8c-6.4 0-9.3-2.9-9.3-9.3 0 6.4-2.8 9.3-9.3 9.3 6.5 0 9.3 2.9 9.3 9.3 0-6.4 2.9-9.3 9.3-9.3z"></path>
		</g>
	</g>
</svg>